<?xml version="1.0" encoding="utf-8"?>
<!-- Generator: Adobe Illustrator 17.0.0, SVG Export Plug-In . SVG Version: 6.00 Build 0)  -->
<!DOCTYPE svg PUBLIC "-//W3C//DTD SVG 1.1//EN" "http://www.w3.org/Graphics/SVG/1.1/DTD/svg11.dtd">
<svg version="1.1" id="Layer_1" xmlns="http://www.w3.org/2000/svg" xmlns:xlink="http://www.w3.org/1999/xlink" x="0px" y="0px"
	 width="612px" height="792px" viewBox="0 0 612 792" enable-background="new 0 0 612 792" xml:space="preserve">
<g>
	<g>
		<path d="M474.704,396.998c0,43.11,0.058,86.22-0.024,129.33c-0.042,21.903-17.389,38.879-39.005,38.285
			c-9.476-0.26-17.776-3.735-24.746-10.169c-46.274-42.714-92.593-85.378-138.75-128.218c-18.221-16.912-18.139-42.183,0.143-59.142
			c46.077-42.742,92.236-85.396,138.518-127.915c12.079-11.097,26.352-13.716,41.349-6.978
			c14.803,6.651,22.395,18.851,22.458,35.103C474.815,310.527,474.704,353.763,474.704,396.998z"/>
		<path d="M234.734,396.712c-0.001,43.739,0.037,87.479-0.019,131.218c-0.022,17.301-10.487,31.092-26.718,35.514
			c-1.56,0.425-3.173,0.939-4.76,0.935c-11.601-0.035-23.324,0.822-34.775-0.548c-17.031-2.038-29.446-17.127-29.654-34.379
			c-0.201-16.618-0.06-33.241-0.06-49.862c-0.002-71.232-0.019-142.465,0.012-213.697c0.008-19.306,12.138-34.422,31.155-36.514
			c12.056-1.326,24.564-1.13,36.589,0.478c16.331,2.184,28.099,17.716,28.196,34.888c0.127,22.494,0.035,44.989,0.036,67.483
			C234.736,353.722,234.735,375.217,234.734,396.712z"/>
	</g>
</g>
</svg>
