<?xml version="1.0" encoding="utf-8"?>
<!-- Generator: Adobe Illustrator 17.0.0, SVG Export Plug-In . SVG Version: 6.00 Build 0)  -->
<!DOCTYPE svg PUBLIC "-//W3C//DTD SVG 1.1//EN" "http://www.w3.org/Graphics/SVG/1.1/DTD/svg11.dtd">
<svg version="1.1" id="Layer_1" xmlns="http://www.w3.org/2000/svg" xmlns:xlink="http://www.w3.org/1999/xlink" x="0px" y="0px"
	 width="612px" height="792px" viewBox="0 0 612 792" enable-background="new 0 0 612 792" xml:space="preserve">
<g>
	<g>
		<path d="M138.748,396.785c0-43.234-0.053-86.469,0.023-129.703c0.038-21.866,17.444-38.889,39.035-38.254
			c9.753,0.287,18.132,4.055,25.302,10.684c36.513,33.76,73.056,67.488,109.589,101.227c9.271,8.562,18.596,17.066,27.804,25.695
			c19.043,17.845,19.179,42.781,0.083,60.478c-45.913,42.551-91.877,85.047-137.989,127.382
			c-12.078,11.089-26.355,13.639-41.366,6.907c-14.838-6.655-22.374-18.824-22.43-35.088
			C138.649,483.003,138.748,439.894,138.748,396.785z"/>
		<path d="M378.718,396.605c-0.001-43.114-0.005-86.229,0.001-129.343c0.003-23.39,15.066-38.559,38.365-38.487
			c9.233,0.028,18.57-0.44,27.675,0.741c16.872,2.189,29.335,16.881,29.906,33.858c0.029,0.874,0.039,1.749,0.039,2.624
			c0.002,87.104,0.013,174.207-0.008,261.311c-0.004,17.861-10.349,31.761-26.854,36.159c-2.275,0.606-4.659,1.086-7,1.118
			c-9.37,0.128-18.754,0.342-28.113-0.003c-19.099-0.704-33.95-16.638-33.985-36.386
			C378.664,484.334,378.718,440.469,378.718,396.605z"/>
	</g>
</g>
</svg>
