<?xml version="1.0" encoding="utf-8"?>
<!-- Generator: Adobe Illustrator 17.0.0, SVG Export Plug-In . SVG Version: 6.00 Build 0)  -->
<!DOCTYPE svg PUBLIC "-//W3C//DTD SVG 1.1//EN" "http://www.w3.org/Graphics/SVG/1.1/DTD/svg11.dtd">
<svg version="1.1" id="Layer_1" xmlns="http://www.w3.org/2000/svg" xmlns:xlink="http://www.w3.org/1999/xlink" x="0px" y="0px"
	 width="612px" height="792px" viewBox="0 0 612 792" enable-background="new 0 0 612 792" xml:space="preserve">
<g>
	<g>
		<path d="M282.728,396.721c0,43.74,0.038,87.479-0.019,131.219c-0.023,17.296-10.477,31.162-26.742,35.453
			c-3.335,0.88-6.895,1.225-10.357,1.255c-15.245,0.131-30.492,0.096-45.739,0.047c-21.585-0.069-37.106-15.543-37.114-37.127
			c-0.033-87.229-0.033-174.458,0-261.687c0.008-21.591,15.532-37.066,37.11-37.126c15.246-0.043,30.493-0.046,45.739,0.001
			c21.603,0.067,37.084,15.51,37.108,37.121C282.762,309.492,282.729,353.107,282.728,396.721z"/>
		<path d="M450.707,397.111c0,43.615,0.039,87.229-0.02,130.843c-0.023,17.288-10.491,31.159-26.755,35.443
			c-3.336,0.879-6.896,1.221-10.358,1.25c-15.245,0.131-30.492,0.096-45.739,0.047c-21.582-0.07-37.091-15.547-37.099-37.142
			c-0.033-87.229-0.033-174.458,0.001-261.687c0.008-21.583,15.542-37.052,37.125-37.111c15.246-0.042,30.493-0.047,45.739,0.001
			c21.602,0.068,37.069,15.512,37.093,37.136C450.741,309.632,450.708,353.372,450.707,397.111z"/>
	</g>
</g>
</svg>
