<?xml version="1.0" encoding="utf-8"?>
<!-- Generator: Adobe Illustrator 17.0.0, SVG Export Plug-In . SVG Version: 6.00 Build 0)  -->
<!DOCTYPE svg PUBLIC "-//W3C//DTD SVG 1.1//EN" "http://www.w3.org/Graphics/SVG/1.1/DTD/svg11.dtd">
<svg version="1.1" id="Layer_1" xmlns="http://www.w3.org/2000/svg" xmlns:xlink="http://www.w3.org/1999/xlink" x="0px" y="0px"
	 width="612px" height="792px" viewBox="0 0 612 792" enable-background="new 0 0 612 792" xml:space="preserve">
<g>
	<g>
		<path d="M450.82,391.298c-0.596,16.091-7.603,28.75-21.437,37.498c-42.42,26.823-84.858,53.617-127.29,80.421
			c-25.859,16.335-51.655,32.771-77.6,48.968c-22.792,14.229-51.751,3.885-59.731-21.269c-1.191-3.753-1.924-7.826-1.929-11.753
			c-0.107-85.343-0.157-170.687-0.03-256.03c0.034-23.06,18.885-40.998,41.774-40.344c7.297,0.209,13.831,2.801,20.097,6.429
			c43.528,25.206,87.098,50.339,130.651,75.502c24.316,14.049,48.637,28.092,72.932,42.179
			c12.713,7.371,20.056,18.416,22.157,32.941C450.662,387.565,450.679,389.323,450.82,391.298z"/>
	</g>
</g>
</svg>
